<svg width="50" height="43" viewBox="0 0 50 43" fill="none" xmlns="http://www.w3.org/2000/svg">
<path d="M40.9666 12.9643C38.9815 8.31204 35.4083 4.51622 30.8845 2.25377C26.3606 -0.00868177 21.1802 -0.590659 16.2671 0.611633C11.354 1.81393 7.02772 4.72231 4.05979 8.81809C1.09187 12.9139 -0.324704 17.9307 0.062718 22.9739C0.45014 28.0171 2.61636 32.7588 6.17505 36.3532C9.73374 39.9476 14.4535 42.161 19.4926 42.5988C24.5317 43.0365 29.5624 41.6701 33.6876 38.7433C37.8128 35.8164 40.7643 31.5193 42.0156 26.6185L32.5485 24.2014C31.8702 26.8582 30.2701 29.1878 28.0337 30.7745C25.7973 32.3613 23.07 33.102 20.3382 32.8647C17.6064 32.6274 15.0477 31.4274 13.1184 29.4788C11.1892 27.5302 10.0148 24.9596 9.80476 22.2255C9.59473 19.4915 10.3627 16.7717 11.9717 14.5513C13.5807 12.3308 15.9261 10.7541 18.5896 10.1023C21.2531 9.45055 24.0616 9.76605 26.5141 10.9926C28.9666 12.2191 30.9037 14.2769 31.9799 16.799L40.9666 12.9643Z" fill="#2997FF"/>
<path d="M23.71 30.0332L14.2259 17.3876L18.968 11.8552L25.2907 17.3876L41.8881 3.16134L49.7916 4.74204L23.71 30.0332Z" fill="#089565"/>
</svg>
